<svg width="15" height="16" viewBox="0 0 15 16" fill="none" xmlns="http://www.w3.org/2000/svg">
<path d="M14.3643 8.3584C14.6058 8.3584 14.8086 8.55046 14.8086 8.80273V9.66797C14.8086 9.90952 14.6165 10.1123 14.3643 10.1123H10.2822C10.1938 10.1123 10.1319 10.1518 10.1006 10.2197L10.0791 10.2734C10.066 10.3217 10.0718 10.3684 10.0938 10.4092L10.1074 10.4316L10.1094 10.4346L12.7832 14.4092C12.7839 14.4102 12.7845 14.412 12.7852 14.4131C12.8635 14.5408 12.886 14.7114 12.8047 14.8643C12.7253 15.0133 12.5743 15.1055 12.4111 15.1055H11.3701C11.2201 15.1054 11.0871 15.034 11.0059 14.9121L7.88379 10.2637C7.82186 10.1709 7.72356 10.1202 7.6084 10.1201H7.21582C7.10348 10.1202 7.00247 10.1769 6.93848 10.2666C6.9283 10.2808 6.91409 10.2914 6.89844 10.2979L3.81055 14.8965H3.80957C3.72621 15.0291 3.5759 15.0977 3.4375 15.0977H2.39746C2.23519 15.0977 2.08462 15.0067 2.00488 14.8672C1.92326 14.7242 1.93332 14.5418 2.02441 14.4092L4.69043 10.4424C4.73581 10.374 4.74041 10.299 4.70215 10.2266C4.65995 10.1549 4.59266 10.1124 4.51855 10.1123H0.444336C0.202797 10.1123 3.1222e-06 9.92027 0 9.66797V8.80273C2.81008e-05 8.5612 0.192085 8.3584 0.444336 8.3584H14.3643ZM3.7334 14.8457H3.73438H3.7334ZM12.7568 14.7285C12.7503 14.76 12.7387 14.7911 12.7227 14.8213C12.7067 14.8512 12.6882 14.8788 12.666 14.9023C12.6883 14.8787 12.7076 14.8513 12.7236 14.8213C12.7397 14.7912 12.7503 14.7599 12.7568 14.7285ZM10.2812 10.0205H10.2822H10.2812ZM14.7168 8.80273H14.7158V9.66797C14.7158 9.73996 14.6954 9.80797 14.6582 9.86426C14.6831 9.82665 14.7009 9.78391 14.71 9.73828C14.7145 9.71562 14.7168 9.69186 14.7168 9.66797V8.80273ZM14.5 8.47656C14.5421 8.49394 14.5803 8.51925 14.6123 8.55078L14.5605 8.50879C14.5416 8.49618 14.5213 8.48534 14.5 8.47656ZM3.44531 0C3.58387 2.86907e-06 3.73506 0.0682156 3.81836 0.201172L6.92285 4.85449L6.93457 4.87109C6.99884 4.95122 7.0948 5.00098 7.2002 5.00098H7.5918C7.70712 5.00096 7.80623 4.95037 7.86816 4.85742V4.85645L10.9902 0.208984L10.9912 0.208008C11.08 0.0796203 11.2196 0.00787865 11.3623 0.0078125H12.4033C12.5616 0.00791227 12.7134 0.0875039 12.7949 0.238281L12.8213 0.293945C12.873 0.42578 12.854 0.573384 12.7764 0.694336L12.7754 0.696289L10.1016 4.66309C10.0553 4.73305 10.0524 4.81535 10.0889 4.87793C10.0903 4.88043 10.0916 4.88312 10.0928 4.88574C10.1235 4.95238 10.1917 4.99204 10.2734 4.99219H14.4043L14.417 4.99316C14.6358 5.02316 14.8086 5.20472 14.8086 5.4375V6.30273C14.8084 6.54417 14.6164 6.74707 14.3643 6.74707H0.444336C0.202885 6.74707 0.00014974 6.5549 0 6.30273V5.4375C0 5.19594 0.192067 4.99219 0.444336 4.99219H4.53418C4.61209 4.99219 4.67758 4.95547 4.71777 4.88086L4.71875 4.87793C4.75599 4.81401 4.75112 4.73327 4.70801 4.67383C4.70737 4.67294 4.70667 4.67181 4.70605 4.6709L2.0332 0.695312C2.03253 0.694317 2.0309 0.693403 2.03027 0.692383C1.95683 0.572629 1.93364 0.414709 1.99805 0.269531L2.01172 0.241211C2.08538 0.0879705 2.24693 1.41198e-05 2.40527 0H3.44531ZM0.408203 6.65332L0.444336 6.65527C0.42647 6.65527 0.408811 6.65196 0.391602 6.64941C0.397187 6.65024 0.402541 6.65276 0.408203 6.65332ZM14.3643 6.65527L14.4014 6.65332C14.4067 6.65278 14.4117 6.65018 14.417 6.64941C14.3998 6.65194 14.3823 6.65527 14.3643 6.65527ZM14.4502 6.64355C14.4634 6.64031 14.4758 6.63551 14.4883 6.63086C14.4758 6.63552 14.4634 6.64031 14.4502 6.64355ZM0.325195 6.63281C0.335781 6.63658 0.346413 6.63982 0.357422 6.64258C0.34641 6.63981 0.335784 6.63658 0.325195 6.63281ZM14.5088 6.62305C14.5226 6.61686 14.5361 6.61037 14.5488 6.60254C14.5361 6.61038 14.5226 6.61686 14.5088 6.62305ZM0.267578 6.60645C0.276811 6.61177 0.28617 6.61661 0.295898 6.62109C0.286168 6.6166 0.276812 6.61177 0.267578 6.60645ZM14.6543 6.50195C14.6305 6.53687 14.6012 6.56747 14.5664 6.5918C14.6012 6.56749 14.6305 6.53684 14.6543 6.50195ZM0.198242 6.55566C0.210915 6.56795 0.224869 6.57862 0.239258 6.58887C0.224867 6.57862 0.210915 6.56795 0.198242 6.55566ZM0.162109 6.51367C0.172122 6.52707 0.182565 6.53998 0.194336 6.55176C0.182565 6.53998 0.17212 6.52708 0.162109 6.51367ZM14.668 6.47852C14.6742 6.46763 14.6805 6.45687 14.6855 6.44531C14.6805 6.45688 14.6742 6.46763 14.668 6.47852ZM0.0976562 6.37402C0.102172 6.39664 0.11063 6.41783 0.119141 6.43848C0.110639 6.41782 0.10216 6.39664 0.0976562 6.37402ZM14.6953 6.41797C14.6986 6.40831 14.7016 6.39867 14.7041 6.38867C14.7016 6.39867 14.6986 6.40831 14.6953 6.41797ZM14.7109 6.35254C14.7116 6.34768 14.7144 6.34281 14.7148 6.33789L14.7168 6.30273C14.7168 6.31971 14.7132 6.33615 14.7109 6.35254ZM0.147461 5.24609C0.124166 5.28262 0.106316 5.32334 0.0976562 5.36719C0.106325 5.32336 0.124163 5.28261 0.147461 5.24609ZM0.293945 5.11719C0.28237 5.12257 0.271545 5.12919 0.260742 5.13574C0.271543 5.12919 0.282373 5.12257 0.293945 5.11719ZM0.355469 5.0957C0.344071 5.09859 0.333141 5.1025 0.322266 5.10645C0.333137 5.1025 0.344075 5.09859 0.355469 5.0957ZM10.2734 5.08496H14.4043C14.422 5.08738 14.4393 5.09094 14.4561 5.0957C14.4392 5.09093 14.422 5.08641 14.4043 5.08398H10.2656C10.2682 5.08405 10.2708 5.08496 10.2734 5.08496ZM0.407227 5.08594C0.399714 5.0867 0.392108 5.08863 0.384766 5.08984C0.403964 5.08668 0.424041 5.08496 0.444336 5.08496H4.53418C4.53672 5.08496 4.53947 5.08404 4.54199 5.08398H0.444336L0.407227 5.08594ZM11.123 0.194336C11.1022 0.21337 11.0833 0.235344 11.0664 0.259766C11.0843 0.233941 11.1048 0.211192 11.127 0.191406L11.123 0.194336ZM11.1963 0.141602C11.1728 0.154311 11.1507 0.170325 11.1299 0.188477C11.1507 0.170332 11.1728 0.154303 11.1963 0.141602ZM12.625 0.178711C12.6124 0.168579 12.6007 0.15758 12.5869 0.149414C12.6007 0.15758 12.6124 0.168581 12.625 0.178711ZM3.64355 0.154297C3.63434 0.148149 3.62592 0.140979 3.61621 0.135742C3.62592 0.140969 3.63434 0.148159 3.64355 0.154297ZM11.2734 0.112305C11.255 0.117291 11.2374 0.124778 11.2197 0.132812C11.2374 0.124785 11.255 0.117286 11.2734 0.112305ZM12.5498 0.132812C12.5349 0.126241 12.5206 0.118737 12.5049 0.114258C12.5206 0.118737 12.5349 0.126241 12.5498 0.132812ZM3.58496 0.123047C3.56847 0.116048 3.5523 0.108979 3.53516 0.104492C3.5523 0.108968 3.56847 0.116064 3.58496 0.123047ZM11.3418 0.100586C11.3294 0.10136 11.317 0.104314 11.3047 0.106445C11.3239 0.103123 11.3429 0.0996206 11.3623 0.0996094L11.3418 0.100586ZM12.4619 0.106445C12.4503 0.104591 12.4386 0.101332 12.4268 0.100586L12.4033 0.0996094C12.4232 0.0996197 12.4426 0.103371 12.4619 0.106445ZM3.5127 0.0996094C3.49734 0.0966111 3.48217 0.0927472 3.4668 0.0917969H3.44531C3.46756 0.0917969 3.49032 0.0952508 3.5127 0.0996094Z" fill="currentColor"/>
</svg>
